<svg xmlns="http://www.w3.org/2000/svg" xmlns:xlink="http://www.w3.org/1999/xlink" width="100" zoomAndPan="magnify" viewBox="0 0 75 74.999997" height="100" preserveAspectRatio="xMidYMid meet" version="1.0"><defs><g/><clipPath id="8c7797a980"><path d="M 3.300781 3.925781 L 75 3.925781 L 75 73.8125 L 3.300781 73.8125 Z M 3.300781 3.925781 " clip-rule="nonzero"/></clipPath><clipPath id="040ce36581"><path d="M 7.050781 3.925781 L 71.25 3.925781 C 73.320312 3.925781 75 5.605469 75 7.675781 L 75 70.0625 C 75 72.132812 73.320312 73.8125 71.25 73.8125 L 7.050781 73.8125 C 4.980469 73.8125 3.300781 72.132812 3.300781 70.0625 L 3.300781 7.675781 C 3.300781 5.605469 4.980469 3.925781 7.050781 3.925781 Z M 7.050781 3.925781 " clip-rule="nonzero"/></clipPath><clipPath id="aacbe2861a"><path d="M 17 41 L 40 41 L 40 46 L 17 46 Z M 17 41 " clip-rule="nonzero"/></clipPath><clipPath id="43ba071ea9"><path d="M 17.339844 43.820312 L 38.933594 41.210938 L 39.203125 43.441406 L 17.609375 46.054688 Z M 17.339844 43.820312 " clip-rule="nonzero"/></clipPath><clipPath id="bdfe193ce3"><path d="M 17.339844 43.820312 L 38.933594 41.210938 L 39.203125 43.441406 L 17.609375 46.054688 Z M 17.339844 43.820312 " clip-rule="nonzero"/></clipPath></defs><g clip-path="url(#8c7797a980)"><g clip-path="url(#040ce36581)"><path fill="#012269" d="M 3.300781 3.925781 L 75.097656 3.925781 L 75.097656 73.8125 L 3.300781 73.8125 Z M 3.300781 3.925781 " fill-opacity="1" fill-rule="nonzero"/></g></g><g fill="#eef0ed" fill-opacity="1"><g transform="translate(18.836593, 41.880392)"><g><path d="M 1.179688 -0.136719 C 3.054688 -0.347656 3.691406 -3.148438 4.046875 -3.964844 C 4.167969 -4.246094 3.566406 -4.597656 3.382812 -4.238281 C 3.140625 -3.761719 2.824219 -3.460938 2.339844 -3.402344 C 1.507812 -3.308594 1.527344 -4.113281 1.671875 -4.945312 C 1.855469 -6.148438 2.253906 -7.484375 2.839844 -9.113281 C 3.171875 -10.039062 2.925781 -10.445312 2.355469 -10.382812 C 1.234375 -10.253906 0.835938 -8.054688 -0.101562 -3.839844 C -0.289062 -3.019531 -0.382812 -2.121094 -0.300781 -1.414062 C -0.207031 -0.59375 0.195312 -0.0234375 1.179688 -0.136719 Z M 1.179688 -0.136719 "/></g></g></g><g fill="#eef0ed" fill-opacity="1"><g transform="translate(22.333953, 41.480625)"><g><path d="M 6.824219 -4.632812 C 6.59375 -4.183594 6.363281 -3.863281 5.949219 -3.816406 C 5.574219 -3.773438 5.214844 -3.972656 5.152344 -4.5 C 5.074219 -5.191406 5.578125 -6.320312 5.488281 -7.097656 C 5.441406 -7.5 5.273438 -7.632812 4.996094 -7.601562 C 4.289062 -7.523438 3.832031 -6.472656 3.46875 -4.585938 L 3.460938 -4.53125 C 3.304688 -3.808594 2.90625 -3.484375 2.40625 -3.425781 C 1.949219 -3.371094 1.796875 -3.59375 1.753906 -3.984375 C 1.660156 -4.800781 2.175781 -5.804688 2.074219 -6.707031 C 2.03125 -7.066406 1.886719 -7.246094 1.582031 -7.210938 C 0.804688 -7.125 0.292969 -5.941406 -0.117188 -3.839844 C -0.289062 -2.90625 -0.222656 -2.082031 -0.175781 -1.667969 C -0.046875 -0.527344 0.484375 -0.0703125 1.234375 -0.15625 C 2.316406 -0.277344 2.886719 -1.441406 3.234375 -2.480469 C 3.230469 -2.269531 3.234375 -2.085938 3.257812 -1.90625 C 3.367188 -0.917969 3.804688 -0.433594 4.621094 -0.527344 C 6.496094 -0.742188 7.132812 -3.542969 7.488281 -4.359375 C 7.613281 -4.640625 7.007812 -4.992188 6.824219 -4.632812 Z M 6.824219 -4.632812 "/></g></g></g><g fill="#eef0ed" fill-opacity="1"><g transform="translate(29.273153, 40.687438)"><g><path d="M 1.933594 -7.828125 C 2.652344 -7.910156 3.191406 -8.253906 3.175781 -9.125 C 3.148438 -9.992188 2.546875 -10.191406 1.839844 -10.109375 C 1.078125 -10.023438 0.484375 -9.660156 0.597656 -8.675781 C 0.683594 -7.9375 1.265625 -7.753906 1.933594 -7.828125 Z M 1.25 -0.144531 C 3.039062 -0.347656 3.617188 -3.171875 3.976562 -3.96875 C 4.085938 -4.234375 3.496094 -4.589844 3.3125 -4.230469 C 3.082031 -3.785156 2.851562 -3.476562 2.433594 -3.429688 C 2.058594 -3.386719 1.78125 -3.59375 1.730469 -4.050781 C 1.644531 -4.800781 2.164062 -5.789062 2.066406 -6.636719 C 2.015625 -7.078125 1.816406 -7.238281 1.523438 -7.207031 C 0.734375 -7.117188 0.292969 -5.925781 -0.117188 -3.839844 C -0.246094 -3.148438 -0.300781 -2.382812 -0.226562 -1.730469 C -0.113281 -0.761719 0.320312 -0.0351562 1.25 -0.144531 Z M 1.25 -0.144531 "/></g></g></g><g fill="#eef0ed" fill-opacity="1"><g transform="translate(32.687238, 40.29719)"><g><path d="M 5.269531 -4.457031 C 5.039062 -4.007812 4.785156 -3.667969 4.371094 -3.609375 C 4.089844 -4.449219 3.226562 -5.472656 3.199219 -5.738281 C 3.132812 -6.292969 4.144531 -6.449219 4.078125 -6.894531 C 4.042969 -7.339844 3.566406 -7.792969 2.707031 -7.691406 C 1.511719 -7.554688 0.765625 -5.375 -0.0703125 -3.929688 L -0.117188 -3.839844 C -0.789062 -2.355469 -0.222656 0.0117188 2.21875 -0.269531 C 4.800781 -0.5625 5.636719 -3.332031 5.933594 -4.179688 C 6.03125 -4.457031 5.453125 -4.8125 5.269531 -4.457031 Z M 1.394531 -3.070312 C 0.933594 -3.019531 0.585938 -3.230469 0.550781 -3.566406 C 0.820312 -4.003906 1.1875 -4.621094 1.476562 -5.175781 C 1.582031 -5.371094 1.691406 -5.382812 1.808594 -5.214844 C 2.046875 -4.859375 2.195312 -4.527344 2.234375 -4.191406 C 2.300781 -3.625 2.003906 -3.140625 1.394531 -3.070312 Z M 1.394531 -3.070312 "/></g></g></g><g fill="#eef0ed" fill-opacity="1"><g transform="translate(38.058178, 39.683263)"><g><path d="M 2.609375 -0.296875 C 4.21875 -0.480469 5.554688 -1.84375 6.519531 -4.246094 C 6.640625 -4.527344 6.039062 -4.882812 5.855469 -4.523438 C 5.339844 -3.492188 4.269531 -2.878906 3.324219 -2.769531 C 2.535156 -2.679688 1.851562 -2.855469 1.796875 -3.339844 C 1.777344 -3.523438 1.910156 -3.578125 2.015625 -3.535156 C 2.355469 -3.390625 2.734375 -3.390625 3.121094 -3.4375 C 4.484375 -3.59375 5.226562 -4.832031 5.113281 -5.84375 C 5.007812 -6.761719 4.34375 -7.527344 3.050781 -7.378906 C -0.933594 -6.925781 -1.292969 0.148438 2.609375 -0.296875 Z M 2.644531 -4.4375 C 2.199219 -4.386719 1.960938 -4.625 1.925781 -4.929688 C 1.882812 -5.304688 2.167969 -5.746094 2.710938 -5.808594 C 3.140625 -5.859375 3.378906 -5.617188 3.414062 -5.3125 C 3.453125 -4.964844 3.183594 -4.5 2.644531 -4.4375 Z M 2.644531 -4.4375 "/></g></g></g><g fill="#eef0ed" fill-opacity="1"><g transform="translate(44.025887, 39.001122)"><g><path d="M 5.367188 -4.46875 C 5.136719 -4.019531 4.90625 -3.695312 4.492188 -3.648438 C 3.867188 -3.578125 3.597656 -3.84375 3.550781 -4.230469 C 3.453125 -5.09375 3.984375 -5.742188 3.894531 -6.535156 C 3.808594 -7.285156 2.375 -8.019531 1.070312 -7.871094 C 0.320312 -7.785156 -0.0898438 -7.050781 -0.0234375 -6.480469 C 0.0351562 -5.980469 0.234375 -5.820312 0.523438 -5.753906 C 0.359375 -5.089844 0.105469 -4.246094 -0.117188 -3.839844 C -0.265625 -3.554688 0.410156 -3.183594 0.550781 -3.566406 C 0.71875 -4.046875 1.070312 -5.042969 1.253906 -5.628906 C 1.835938 -5.484375 2.054688 -5.15625 2.070312 -5.019531 C 2.148438 -4.351562 1.324219 -2.9375 1.472656 -1.644531 C 1.550781 -0.9375 2.027344 -0.230469 3.164062 -0.363281 C 5.039062 -0.574219 5.675781 -3.378906 6.03125 -4.191406 C 6.15625 -4.472656 5.550781 -4.824219 5.367188 -4.46875 Z M 5.367188 -4.46875 "/></g></g></g><g fill="#eef0ed" fill-opacity="1"><g transform="translate(49.507855, 38.374504)"><g><path d="M 1.472656 -0.167969 C 2.457031 -0.28125 3.1875 -1.277344 3.613281 -2.464844 L 3.667969 -2.472656 C 3.632812 -1.300781 4.136719 -0.472656 5.09375 -0.582031 C 6.636719 -0.757812 7.152344 -3.011719 7.683594 -4.378906 C 7.792969 -4.660156 7.191406 -5.011719 7.019531 -4.65625 C 6.792969 -4.179688 6.476562 -3.875 6.003906 -3.824219 C 5.394531 -3.753906 5.175781 -4.289062 5.535156 -5.359375 C 5.746094 -6.199219 6.058594 -6.667969 6 -7.195312 C 5.964844 -7.503906 5.816406 -7.695312 5.453125 -7.65625 C 4.800781 -7.582031 4.765625 -7.042969 4.304688 -6.988281 C 3.945312 -6.949219 3.941406 -7.480469 2.828125 -7.355469 C 0.441406 -7.082031 -0.417969 -4.03125 -0.199219 -2.101562 C -0.0585938 -0.867188 0.527344 -0.0585938 1.472656 -0.167969 Z M 2.53125 -3.199219 C 2.101562 -3.152344 1.804688 -3.398438 1.75 -3.871094 C 1.679688 -4.480469 2.0625 -5.214844 2.785156 -5.296875 C 3.226562 -5.347656 3.539062 -5.101562 3.589844 -4.644531 C 3.65625 -4.058594 3.253906 -3.28125 2.53125 -3.199219 Z M 2.53125 -3.199219 "/></g></g></g><g clip-path="url(#aacbe2861a)"><g clip-path="url(#43ba071ea9)"><g clip-path="url(#bdfe193ce3)"><path fill="#eef0ed" d="M 23.5625 45.609375 C 21.5625 45.808594 19.332031 45.683594 17.8125 44.210938 C 17.683594 44.105469 17.398438 43.8125 17.597656 43.859375 C 17.855469 43.972656 18.160156 44.238281 18.4375 44.269531 C 19.539062 44.515625 20.691406 44.382812 21.804688 44.269531 C 25.226562 43.78125 28.589844 42.929688 32.011719 42.414062 C 33.777344 42.160156 35.5625 41.808594 37.351562 41.816406 C 38.019531 42.042969 38.59375 42.546875 39.0625 43.066406 C 39.441406 43.476562 38.929688 43.457031 38.621094 43.515625 C 37.988281 43.605469 37.351562 43.660156 36.71875 43.730469 C 32.304688 44.140625 27.964844 45.109375 23.5625 45.609375 Z M 23.5625 45.609375 " fill-opacity="1" fill-rule="nonzero"/></g></g></g><g fill="#ffffff" fill-opacity="1"><g transform="translate(40.616166, 42.580787)"><g><path d="M 1.257812 -1.0625 C 1.203125 -0.957031 1.144531 -0.875 1.042969 -0.863281 C 0.976562 -1.0625 0.773438 -1.308594 0.765625 -1.371094 C 0.75 -1.503906 0.992188 -1.539062 0.976562 -1.648438 C 0.964844 -1.753906 0.851562 -1.859375 0.648438 -1.835938 C 0.363281 -1.804688 0.183594 -1.285156 -0.015625 -0.9375 L -0.0273438 -0.917969 C -0.1875 -0.5625 -0.0546875 0.00390625 0.53125 -0.0625 C 1.148438 -0.132812 1.347656 -0.796875 1.417969 -1 C 1.441406 -1.066406 1.304688 -1.148438 1.257812 -1.0625 Z M 0.332031 -0.734375 C 0.222656 -0.722656 0.140625 -0.773438 0.132812 -0.851562 C 0.195312 -0.957031 0.285156 -1.105469 0.351562 -1.238281 C 0.378906 -1.28125 0.40625 -1.285156 0.433594 -1.246094 C 0.488281 -1.160156 0.523438 -1.082031 0.535156 -1 C 0.550781 -0.867188 0.480469 -0.75 0.332031 -0.734375 Z M 0.332031 -0.734375 "/></g></g></g><g fill="#ffffff" fill-opacity="1"><g transform="translate(41.899832, 42.434532)"><g><path d="M 1.550781 -1.097656 C 1.484375 -0.972656 1.402344 -0.914062 1.304688 -0.90625 L 1.28125 -0.902344 C 1.300781 -1.015625 1.304688 -1.132812 1.292969 -1.25 C 1.246094 -1.667969 1.015625 -1.796875 0.742188 -1.765625 C 0.214844 -1.703125 -0.101562 -1.058594 -0.0429688 -0.558594 C -0.00390625 -0.214844 0.234375 -0.0273438 0.535156 -0.0625 C 0.78125 -0.0898438 1 -0.261719 1.140625 -0.507812 L 1.179688 -0.511719 C 1.503906 -0.546875 1.636719 -0.816406 1.710938 -1.03125 C 1.738281 -1.113281 1.585938 -1.160156 1.550781 -1.097656 Z M 0.644531 -0.769531 C 0.519531 -0.753906 0.464844 -0.832031 0.453125 -0.929688 C 0.433594 -1.074219 0.527344 -1.25 0.6875 -1.269531 C 0.816406 -1.28125 0.878906 -1.210938 0.890625 -1.113281 C 0.90625 -0.972656 0.8125 -0.789062 0.644531 -0.769531 Z M 0.644531 -0.769531 "/></g></g></g><g fill="#ffffff" fill-opacity="1"><g transform="translate(43.478708, 42.254642)"><g><path d="M 0.582031 -0.0664062 C 0.972656 -0.109375 1.292969 -0.4375 1.523438 -1.011719 C 1.554688 -1.078125 1.410156 -1.160156 1.367188 -1.078125 C 1.105469 -0.589844 0.449219 -0.542969 0.398438 -0.984375 C 0.378906 -1.152344 0.449219 -1.316406 0.597656 -1.335938 C 0.695312 -1.347656 0.738281 -1.292969 0.746094 -1.234375 C 0.761719 -1.113281 0.683594 -1.09375 0.691406 -1.035156 C 0.695312 -0.992188 0.757812 -0.949219 0.875 -0.964844 C 1.015625 -0.980469 1.199219 -1.113281 1.167969 -1.398438 C 1.144531 -1.617188 0.980469 -1.792969 0.664062 -1.753906 C 0.140625 -1.695312 -0.117188 -1.113281 -0.0625 -0.648438 C -0.0234375 -0.304688 0.1875 -0.0195312 0.582031 -0.0664062 Z M 0.582031 -0.0664062 "/></g></g></g><g fill="#ffffff" fill-opacity="1"><g transform="translate(44.871837, 42.095915)"><g><path d="M 0.460938 -1.871094 C 0.632812 -1.890625 0.761719 -1.972656 0.757812 -2.179688 C 0.753906 -2.386719 0.609375 -2.433594 0.441406 -2.414062 C 0.257812 -2.394531 0.117188 -2.308594 0.144531 -2.074219 C 0.164062 -1.898438 0.304688 -1.851562 0.460938 -1.871094 Z M 0.296875 -0.0351562 C 0.726562 -0.0820312 0.863281 -0.757812 0.949219 -0.949219 C 0.976562 -1.011719 0.835938 -1.097656 0.792969 -1.011719 C 0.738281 -0.902344 0.679688 -0.832031 0.582031 -0.820312 C 0.492188 -0.808594 0.425781 -0.859375 0.414062 -0.96875 C 0.394531 -1.148438 0.519531 -1.382812 0.496094 -1.585938 C 0.484375 -1.691406 0.433594 -1.730469 0.363281 -1.722656 C 0.175781 -1.699219 0.0703125 -1.414062 -0.0273438 -0.917969 C -0.0585938 -0.753906 -0.0703125 -0.570312 -0.0546875 -0.414062 C -0.0273438 -0.183594 0.078125 -0.0078125 0.296875 -0.0351562 Z M 0.296875 -0.0351562 "/></g></g></g><g fill="#ffffff" fill-opacity="1"><g transform="translate(45.687813, 42.002946)"><g><path d="M 0.351562 -0.0390625 C 0.585938 -0.0664062 0.761719 -0.304688 0.863281 -0.589844 L 0.875 -0.589844 C 0.867188 -0.3125 0.988281 -0.113281 1.21875 -0.140625 C 1.585938 -0.179688 1.707031 -0.71875 1.835938 -1.046875 C 1.863281 -1.113281 1.71875 -1.195312 1.675781 -1.113281 C 1.625 -1 1.546875 -0.925781 1.433594 -0.914062 C 1.289062 -0.894531 1.238281 -1.023438 1.324219 -1.28125 C 1.375 -1.480469 1.449219 -1.59375 1.433594 -1.71875 C 1.425781 -1.792969 1.390625 -1.839844 1.304688 -1.828125 C 1.148438 -1.8125 1.140625 -1.683594 1.03125 -1.667969 C 0.941406 -1.660156 0.941406 -1.789062 0.675781 -1.757812 C 0.105469 -1.691406 -0.101562 -0.964844 -0.046875 -0.503906 C -0.0117188 -0.207031 0.125 -0.015625 0.351562 -0.0390625 Z M 0.605469 -0.765625 C 0.503906 -0.753906 0.433594 -0.8125 0.417969 -0.925781 C 0.402344 -1.070312 0.492188 -1.246094 0.664062 -1.265625 C 0.773438 -1.277344 0.84375 -1.21875 0.859375 -1.109375 C 0.875 -0.96875 0.777344 -0.785156 0.605469 -0.765625 Z M 0.605469 -0.765625 "/></g></g></g><g fill="#ffffff" fill-opacity="1"><g transform="translate(47.392736, 41.808695)"><g><path d="M 0.28125 -0.03125 C 0.730469 -0.0820312 0.882812 -0.753906 0.96875 -0.945312 C 0.996094 -1.015625 0.851562 -1.097656 0.808594 -1.011719 C 0.75 -0.898438 0.675781 -0.828125 0.558594 -0.8125 C 0.359375 -0.789062 0.363281 -0.980469 0.398438 -1.179688 C 0.445312 -1.46875 0.539062 -1.789062 0.679688 -2.175781 C 0.757812 -2.398438 0.699219 -2.496094 0.5625 -2.480469 C 0.296875 -2.449219 0.199219 -1.925781 -0.0234375 -0.917969 C -0.0703125 -0.722656 -0.0898438 -0.507812 -0.0703125 -0.335938 C -0.0507812 -0.140625 0.046875 -0.00390625 0.28125 -0.03125 Z M 0.28125 -0.03125 "/></g></g></g><g fill="#ffffff" fill-opacity="1"><g transform="translate(48.228611, 41.713459)"><g/></g></g><g fill="#ffffff" fill-opacity="1"><g transform="translate(49.422722, 41.577407)"><g><path d="M 0.207031 -0.0234375 C 0.445312 -0.0507812 0.46875 -0.238281 0.449219 -0.40625 L 0.429688 -0.554688 C 0.398438 -0.851562 0.53125 -1.144531 0.722656 -1.167969 C 0.800781 -1.175781 0.855469 -1.140625 0.863281 -1.054688 C 0.882812 -0.882812 0.742188 -0.640625 0.773438 -0.386719 C 0.796875 -0.167969 0.917969 -0.109375 1.070312 -0.128906 C 1.320312 -0.15625 1.34375 -0.34375 1.328125 -0.484375 C 1.316406 -0.582031 1.292969 -0.609375 1.28125 -0.707031 C 1.25 -0.957031 1.386719 -1.25 1.578125 -1.273438 C 1.65625 -1.28125 1.710938 -1.246094 1.71875 -1.171875 C 1.734375 -1.035156 1.621094 -0.796875 1.648438 -0.542969 C 1.667969 -0.355469 1.761719 -0.199219 1.972656 -0.226562 C 2.421875 -0.277344 2.574219 -0.945312 2.660156 -1.140625 C 2.6875 -1.207031 2.542969 -1.292969 2.5 -1.207031 C 2.445312 -1.097656 2.390625 -1.023438 2.289062 -1.011719 C 2.179688 -0.996094 2.121094 -1.046875 2.109375 -1.164062 C 2.089844 -1.332031 2.183594 -1.449219 2.164062 -1.625 C 2.144531 -1.789062 2.03125 -1.917969 1.773438 -1.890625 C 1.613281 -1.871094 1.480469 -1.777344 1.371094 -1.625 C 1.328125 -1.5625 1.300781 -1.574219 1.289062 -1.613281 C 1.242188 -1.730469 1.136719 -1.808594 0.976562 -1.792969 C 0.828125 -1.773438 0.703125 -1.691406 0.59375 -1.554688 C 0.5 -1.4375 0.421875 -1.484375 0.410156 -1.597656 C 0.402344 -1.664062 0.367188 -1.722656 0.292969 -1.714844 C 0.160156 -1.699219 0.0625 -1.339844 -0.0273438 -0.917969 C -0.0898438 -0.636719 -0.078125 -0.394531 -0.0625 -0.238281 C -0.0429688 -0.0976562 0.0546875 -0.0078125 0.207031 -0.0234375 Z M 0.207031 -0.0234375 "/></g></g></g><g fill="#ffffff" fill-opacity="1"><g transform="translate(51.950252, 41.289431)"><g><path d="M 0.625 -0.0703125 C 1.007812 -0.113281 1.328125 -0.441406 1.558594 -1.015625 C 1.585938 -1.082031 1.441406 -1.164062 1.398438 -1.078125 C 1.277344 -0.835938 1.019531 -0.6875 0.792969 -0.660156 C 0.605469 -0.640625 0.441406 -0.683594 0.429688 -0.796875 C 0.425781 -0.839844 0.457031 -0.855469 0.480469 -0.84375 C 0.5625 -0.808594 0.652344 -0.808594 0.746094 -0.820312 C 1.070312 -0.859375 1.25 -1.152344 1.222656 -1.394531 C 1.195312 -1.613281 1.039062 -1.796875 0.730469 -1.761719 C -0.222656 -1.65625 -0.308594 0.0351562 0.625 -0.0703125 Z M 0.632812 -1.058594 C 0.527344 -1.046875 0.46875 -1.105469 0.460938 -1.179688 C 0.449219 -1.269531 0.519531 -1.371094 0.648438 -1.386719 C 0.75 -1.398438 0.808594 -1.34375 0.816406 -1.269531 C 0.824219 -1.1875 0.761719 -1.074219 0.632812 -1.058594 Z M 0.632812 -1.058594 "/></g></g></g><g fill="#ffffff" fill-opacity="1"><g transform="translate(53.376548, 41.126925)"><g><path d="M 0.386719 -0.0429688 C 0.589844 -0.0664062 0.757812 -0.304688 0.863281 -0.589844 L 0.875 -0.589844 C 0.871094 -0.3125 1.003906 -0.113281 1.21875 -0.140625 C 1.585938 -0.179688 1.707031 -0.71875 1.835938 -1.046875 C 1.863281 -1.113281 1.71875 -1.195312 1.675781 -1.113281 C 1.625 -1 1.546875 -0.925781 1.433594 -0.914062 C 1.289062 -0.894531 1.238281 -1.023438 1.324219 -1.28125 L 1.589844 -2.28125 C 1.652344 -2.480469 1.59375 -2.597656 1.476562 -2.585938 C 1.375 -2.574219 1.261719 -2.503906 1.167969 -2.183594 C 1.066406 -1.824219 1.085938 -1.640625 1.035156 -1.636719 C 0.945312 -1.625 0.941406 -1.789062 0.675781 -1.757812 C 0.105469 -1.691406 -0.101562 -0.964844 -0.0429688 -0.472656 C -0.0117188 -0.207031 0.125 -0.015625 0.386719 -0.0429688 Z M 0.613281 -0.765625 C 0.484375 -0.75 0.429688 -0.828125 0.417969 -0.925781 C 0.402344 -1.070312 0.492188 -1.246094 0.65625 -1.265625 C 0.785156 -1.277344 0.847656 -1.207031 0.859375 -1.109375 C 0.875 -0.96875 0.777344 -0.785156 0.613281 -0.765625 Z M 0.613281 -0.765625 "/></g></g></g><g fill="#ffffff" fill-opacity="1"><g transform="translate(55.081471, 40.932674)"><g><path d="M 0.460938 -1.871094 C 0.632812 -1.890625 0.761719 -1.972656 0.757812 -2.179688 C 0.753906 -2.386719 0.609375 -2.433594 0.441406 -2.414062 C 0.257812 -2.394531 0.117188 -2.308594 0.144531 -2.074219 C 0.164062 -1.898438 0.304688 -1.851562 0.460938 -1.871094 Z M 0.296875 -0.0351562 C 0.726562 -0.0820312 0.863281 -0.757812 0.949219 -0.949219 C 0.976562 -1.011719 0.835938 -1.097656 0.792969 -1.011719 C 0.738281 -0.902344 0.679688 -0.832031 0.582031 -0.820312 C 0.492188 -0.808594 0.425781 -0.859375 0.414062 -0.96875 C 0.394531 -1.148438 0.519531 -1.382812 0.496094 -1.585938 C 0.484375 -1.691406 0.433594 -1.730469 0.363281 -1.722656 C 0.175781 -1.699219 0.0703125 -1.414062 -0.0273438 -0.917969 C -0.0585938 -0.753906 -0.0703125 -0.570312 -0.0546875 -0.414062 C -0.0273438 -0.183594 0.078125 -0.0078125 0.296875 -0.0351562 Z M 0.296875 -0.0351562 "/></g></g></g><g fill="#ffffff" fill-opacity="1"><g transform="translate(55.897447, 40.839705)"><g><path d="M 0.351562 -0.0390625 C 0.585938 -0.0664062 0.761719 -0.304688 0.863281 -0.589844 L 0.875 -0.589844 C 0.867188 -0.3125 0.988281 -0.113281 1.21875 -0.140625 C 1.585938 -0.179688 1.707031 -0.71875 1.835938 -1.046875 C 1.863281 -1.113281 1.71875 -1.195312 1.675781 -1.113281 C 1.625 -1 1.546875 -0.925781 1.433594 -0.914062 C 1.289062 -0.894531 1.238281 -1.023438 1.324219 -1.28125 C 1.375 -1.480469 1.449219 -1.59375 1.433594 -1.71875 C 1.425781 -1.792969 1.390625 -1.839844 1.304688 -1.828125 C 1.148438 -1.8125 1.140625 -1.683594 1.03125 -1.667969 C 0.941406 -1.660156 0.941406 -1.789062 0.675781 -1.757812 C 0.105469 -1.691406 -0.101562 -0.964844 -0.046875 -0.503906 C -0.0117188 -0.207031 0.125 -0.015625 0.351562 -0.0390625 Z M 0.605469 -0.765625 C 0.503906 -0.753906 0.433594 -0.8125 0.417969 -0.925781 C 0.402344 -1.070312 0.492188 -1.246094 0.664062 -1.265625 C 0.773438 -1.277344 0.84375 -1.21875 0.859375 -1.109375 C 0.875 -0.96875 0.777344 -0.785156 0.605469 -0.765625 Z M 0.605469 -0.765625"/></g></g></g></svg>